<?xml version="1.0" encoding="UTF-8" standalone="no"?>
<!-- Filename: 50c7ab90008734300c7f2a1506a931bcc5b3cc66f6931a5c59ddb529852c5fc8.svg -->
<!-- Created with https://svgstud.io -->
<svg
  version="1.1"
  xmlns="http://www.w3.org/2000/svg"
  xmlns:xlink="http://www.w3.org/1999/xlink"
  xmlns:svg="http://www.w3.org/2000/svg"
  xmlns:rdf="http://www.w3.org/1999/02/22-rdf-syntax-ns#"
  xmlns:cc="http://creativecommons.org/ns#"
  xmlns:dc="http://purl.org/dc/elements/1.1/"
  viewBox="0 0 768 768"
  width="768"
  height="768"
  role="img"
  aria-labelledby="titleID descID"
>
  <title id="titleID">atm machine</title>
  <desc id="descID">AI-generated SVG illustration: atm machine, created on https://svgstud.io</desc>

  <rect width="100%" height="100%" fill="white" />

  <metadata>
    Created by https://svgstud.io and licensed under CC-BY-SA 4.0 license. Please attribute https://svgstud.io
  </metadata>
  <metadata>
    atm machine
  </metadata>
  <metadata>
    7
  </metadata>
  <metadata>
    <rdf:RDF
      xmlns:rdf="http://www.w3.org/1999/02/22-rdf-syntax-ns#"
      xmlns:cc="http://creativecommons.org/ns#"
      xmlns:dc="http://purl.org/dc/elements/1.1/"
    >
      <cc:Work rdf:about="">
        <cc:license rdf:resource="http://creativecommons.org/licenses/by-sa/4.0/" />
        <dc:creator>
          <cc:Agent>
            <dc:title>https://svgstud.io</dc:title>
          </cc:Agent>
        </dc:creator>
      </cc:Work>
      <cc:License rdf:about="http://creativecommons.org/licenses/by-sa/4.0/">
        <cc:permits rdf:resource="http://creativecommons.org/ns#Reproduction" />
        <cc:permits rdf:resource="http://creativecommons.org/ns#Distribution" />
        <cc:requires rdf:resource="http://creativecommons.org/ns#Notice" />
        <cc:requires rdf:resource="http://creativecommons.org/ns#Attribution" />
        <cc:permits rdf:resource="http://creativecommons.org/ns#DerivativeWorks" />
        <cc:requires rdf:resource="http://creativecommons.org/ns#ShareAlike" />
      </cc:License>
    </rdf:RDF>
  </metadata>
  <metadata id="uid">50c7ab90008734300c7f2a1506a931bcc5b3cc66f6931a5c59ddb529852c5fc8</metadata>

  <path stroke="none" fill="black" fill-rule="evenodd" d="M534.00,728.63C529.33,728.75 518.75,728.21 510.50,727.43C502.25,726.65 484.02,724.89 470.00,723.52C455.98,722.15 433.93,720.13 421.00,719.03C408.07,717.92 389.18,716.33 379.00,715.49C368.82,714.65 347.68,712.82 332.00,711.44C316.32,710.05 295.18,708.04 285.00,706.98C274.82,705.92 259.07,704.35 250.00,703.49C240.93,702.63 231.93,701.51 230.00,700.99C228.07,700.47 225.40,699.28 224.06,698.34C222.53,697.26 220.10,696.71 217.56,696.85C215.33,696.98 204.50,696.15 193.50,695.01C182.50,693.88 166.34,692.03 157.58,690.92C148.82,689.81 139.48,688.44 136.82,687.87C133.92,687.25 131.58,686.09 130.99,684.98C130.45,683.96 130.00,678.14 130.00,672.04C130.00,661.44 129.90,660.91 127.75,660.15C126.51,659.71 107.28,657.40 85.00,655.03C62.73,652.65 43.52,650.35 42.31,649.90C40.15,649.11 40.12,648.81 40.10,626.79C40.09,614.52 40.40,604.01 40.79,603.44C41.18,602.87 44.37,601.62 47.88,600.66C51.38,599.70 55.85,598.25 57.80,597.44C60.47,596.32 61.07,595.67 60.21,594.81C59.35,593.95 56.95,593.98 50.59,594.93C45.93,595.62 41.68,595.92 41.15,595.59C40.57,595.24 40.17,585.39 40.16,571.20C40.14,558.12 40.44,546.93 40.81,546.34C41.19,545.76 43.75,545.05 46.50,544.78C49.25,544.50 54.09,543.51 57.25,542.57C60.77,541.52 63.00,540.30 63.00,539.43C63.00,538.41 61.78,538.01 58.75,538.04C56.41,538.06 51.42,538.67 47.66,539.40C42.49,540.40 40.72,540.43 40.38,539.55C40.13,538.90 40.06,533.23 40.22,526.94C40.50,515.50 40.50,515.50 43.00,515.66C44.38,515.75 49.68,514.97 54.80,513.93C59.91,512.90 64.86,511.62 65.80,511.09C67.39,510.20 67.39,510.09 65.73,509.45C64.76,509.08 59.36,508.98 53.73,509.22C48.11,509.47 42.83,509.86 42.00,510.09C40.75,510.43 40.45,508.84 40.21,500.67C39.94,491.41 40.04,490.88 41.82,491.44C42.86,491.77 48.39,491.35 54.11,490.50C59.82,489.65 65.29,488.70 66.25,488.41C67.21,488.11 68.00,487.45 68.00,486.93C68.00,486.41 62.86,486.01 56.25,486.02C49.79,486.02 43.84,486.45 43.03,486.96C42.05,487.58 41.29,487.49 40.79,486.70C40.37,486.04 40.02,475.42 40.02,463.10C40.00,440.70 40.00,440.70 57.25,441.35C66.74,441.71 91.60,442.49 112.50,443.09C139.84,443.87 156.72,443.87 172.69,443.09C184.89,442.49 198.95,442.00 203.94,442.00C211.23,442.00 213.00,441.71 213.00,440.54C213.00,439.73 212.03,438.55 210.84,437.91C209.65,437.28 202.79,435.50 195.59,433.95C188.39,432.41 180.01,430.24 176.96,429.13C173.91,428.02 166.78,426.64 161.10,426.06C155.43,425.48 132.27,425.02 109.64,425.05C87.01,425.08 62.42,425.48 55.00,425.94C47.58,426.40 41.20,426.49 40.83,426.14C40.46,425.79 40.01,392.26 39.83,351.64C39.50,277.78 39.50,277.78 42.84,275.00C44.67,273.47 48.14,271.66 50.55,270.99C53.11,270.27 56.49,270.06 58.70,270.47C60.78,270.86 62.86,271.42 63.32,271.70C63.79,271.99 62.94,273.50 61.44,275.06C59.00,277.60 58.84,278.20 59.88,280.71C60.52,282.26 62.15,284.87 63.50,286.51C65.56,289.02 66.11,289.26 66.96,288.00C67.52,287.18 67.98,285.29 67.98,283.82C68.00,281.81 68.56,281.06 70.24,280.82C71.47,280.64 72.64,279.68 72.83,278.68C73.02,277.67 72.39,275.98 71.43,274.93C69.75,273.07 69.79,273.00 72.48,273.00C74.36,273.00 76.32,274.12 78.49,276.43C80.30,278.34 82.22,281.81 82.85,284.30C83.57,287.18 84.87,289.34 86.53,290.43C89.10,292.11 89.10,292.11 88.80,305.81C88.63,313.34 88.27,320.14 87.99,320.93C87.62,322.02 89.37,322.66 95.50,323.68C99.90,324.41 106.44,325.48 110.03,326.06C113.62,326.63 117.19,327.50 117.96,327.98C119.13,328.70 119.15,329.12 118.06,330.42C117.32,331.32 115.19,332.01 113.13,332.02C111.13,332.02 108.84,332.45 108.03,332.96C106.84,333.71 107.03,334.06 109.03,334.80C110.39,335.31 113.30,336.05 115.50,336.45C117.70,336.85 119.83,337.70 120.23,338.34C120.64,338.98 120.98,342.08 120.98,345.23C120.99,348.38 121.54,354.13 122.21,358.00C122.87,361.86 123.87,364.88 124.42,364.69C124.97,364.51 126.57,362.14 127.96,359.43C130.50,354.50 130.50,354.50 130.78,287.50C130.93,250.65 130.65,201.15 130.16,177.50C129.27,134.50 129.27,134.50 131.56,130.44C132.83,128.21 135.96,124.45 138.54,122.07C142.89,118.06 143.51,117.80 147.65,118.26C150.09,118.54 154.20,120.08 156.79,121.69C161.09,124.36 161.47,124.92 161.20,128.06C161.04,129.95 160.67,182.35 160.39,244.50C160.11,306.65 160.26,359.30 160.73,361.50C161.35,364.42 162.14,365.58 163.63,365.80C164.75,365.96 166.17,365.50 166.78,364.76C167.54,363.85 168.12,347.20 168.61,312.04C169.32,260.65 169.32,260.65 172.78,256.83C174.78,254.61 177.15,253.00 178.43,253.00C179.63,253.00 181.49,253.65 182.56,254.44C184.21,255.66 184.31,256.18 183.25,257.93C182.56,259.05 182.00,260.36 182.00,260.83C182.00,261.30 183.79,262.22 185.97,262.87C189.46,263.92 190.08,264.58 191.07,268.28C191.78,270.88 192.07,278.42 191.86,288.00C191.50,303.50 191.50,303.50 196.50,304.00C201.50,304.50 201.50,304.50 202.57,335.50C203.29,356.58 204.03,367.24 204.88,368.81C205.57,370.08 206.67,370.95 207.32,370.74C207.97,370.54 209.25,368.15 210.17,365.43C211.19,362.41 212.06,361.08 212.39,362.00C212.70,362.82 213.44,365.52 214.04,368.00C214.64,370.48 215.54,389.82 216.03,411.00C216.52,432.18 217.39,484.38 217.96,527.00C218.53,569.62 218.99,618.10 219.00,634.73C219.00,664.95 219.00,664.95 221.25,666.39C222.49,667.18 227.78,668.52 233.00,669.37C238.22,670.22 259.15,672.52 279.50,674.49C299.85,676.46 318.98,678.50 322.00,679.01C325.02,679.53 342.35,681.53 360.50,683.44C378.65,685.36 405.65,687.86 420.50,689.00C435.35,690.14 458.51,691.96 471.97,693.05C496.44,695.02 496.44,695.02 501.47,692.54C504.24,691.18 507.74,688.91 509.25,687.49C512.00,684.92 512.00,684.92 511.97,582.71C511.95,526.49 511.52,433.93 511.01,377.00C510.50,320.07 509.77,228.49 509.38,173.48C508.68,73.47 508.68,73.47 511.53,66.98C513.09,63.42 514.51,60.32 514.68,60.09C514.85,59.86 515.84,60.45 516.88,61.40C517.93,62.34 520.13,65.67 521.78,68.81C523.43,71.94 525.31,76.97 525.96,80.00C526.76,83.71 527.44,110.02 528.06,161.00C528.56,202.53 529.22,336.18 529.53,458.00C529.84,579.83 530.32,680.96 530.59,682.75C530.87,684.54 531.53,686.00 532.07,686.00C532.60,686.00 534.72,684.89 536.77,683.53C538.82,682.18 549.95,676.98 561.50,671.97C573.05,666.97 591.50,659.13 602.50,654.54C613.50,649.95 626.55,644.55 631.50,642.52C636.45,640.50 641.17,638.19 642.00,637.39C643.32,636.10 643.50,618.95 643.50,495.01C643.50,392.69 643.19,353.79 642.38,352.98C641.77,352.37 636.82,351.17 631.38,350.32C625.95,349.47 620.94,348.32 620.25,347.77C619.26,346.97 619.00,322.80 618.98,233.13C618.96,123.60 618.89,119.35 617.05,115.31C616.01,113.01 613.25,109.06 610.92,106.53C607.51,102.83 603.39,100.34 589.60,93.64C580.19,89.07 565.75,81.72 557.50,77.30C549.25,72.88 535.02,64.78 525.87,59.29C516.73,53.80 506.25,48.11 502.59,46.65C498.93,45.18 492.79,43.44 488.94,42.78C483.05,41.77 479.59,41.87 467.22,43.37C459.12,44.35 440.12,46.68 425.00,48.54C409.88,50.41 390.07,52.84 381.00,53.94C371.93,55.05 349.65,57.77 331.50,59.99C313.35,62.21 289.50,65.16 278.50,66.54C267.50,67.93 256.16,69.73 253.29,70.54C250.43,71.36 245.25,73.97 241.80,76.33C238.34,78.70 233.64,82.92 231.36,85.72C229.08,88.52 226.27,93.35 225.11,96.44C223.01,102.05 223.00,102.65 222.95,216.29C222.92,286.49 222.40,346.78 221.60,372.77C220.89,396.01 220.07,415.26 219.80,415.54C219.52,415.82 218.97,411.03 218.58,404.90C218.19,398.77 217.74,341.05 217.57,276.63C217.40,212.21 217.54,146.00 217.88,129.50C218.50,99.50 218.50,99.50 221.43,93.73C223.03,90.55 226.76,85.29 229.70,82.04C232.64,78.79 237.79,74.30 241.15,72.06C244.51,69.81 250.24,67.09 253.88,66.01C257.52,64.93 269.50,62.94 280.50,61.57C291.50,60.21 314.90,57.28 332.50,55.06C350.10,52.84 378.90,49.22 396.50,47.02C414.10,44.81 440.65,41.48 455.50,39.61C470.35,37.74 487.00,35.90 492.50,35.53C498.00,35.16 506.77,34.22 512.00,33.44C517.23,32.65 526.00,32.01 531.50,32.01C538.01,32.01 544.38,32.70 549.74,33.99C554.27,35.08 561.25,37.61 565.24,39.62C569.23,41.63 580.83,48.09 591.00,53.98C601.17,59.86 614.90,67.56 621.50,71.08C629.96,75.59 635.12,79.11 639.01,83.02C642.04,86.07 646.32,91.92 648.51,96.03C652.50,103.50 652.50,103.50 652.83,125.54C653.16,147.57 653.16,147.57 658.65,150.44C661.67,152.02 666.32,155.28 668.99,157.68C671.66,160.08 674.85,164.13 676.08,166.67C678.33,171.30 678.33,171.30 677.65,264.03C676.98,356.75 676.98,356.75 686.49,358.95C693.22,360.50 696.30,361.69 697.00,363.01C697.61,364.14 698.00,378.38 698.00,399.40C698.00,431.82 698.11,433.99 699.83,434.91C700.83,435.45 704.09,436.18 707.08,436.53C710.06,436.88 713.96,437.62 715.74,438.16C717.53,438.71 719.37,439.83 719.84,440.67C720.30,441.51 720.50,443.19 720.26,444.41C719.91,446.27 718.82,446.80 713.44,447.72C709.93,448.32 705.35,449.64 703.27,450.66C701.20,451.67 699.50,453.18 699.50,454.00C699.50,455.22 701.49,455.55 710.25,455.78C720.84,456.06 721.00,456.10 721.00,458.46C721.00,459.78 720.38,461.48 719.63,462.23C718.87,462.99 714.57,464.40 710.06,465.36C705.20,466.41 701.09,467.91 699.94,469.06C698.07,470.93 698.00,473.03 697.86,527.25C697.79,558.19 697.45,599.69 697.11,619.49C696.50,655.48 696.50,655.48 691.50,658.76C688.75,660.57 677.27,666.72 666.00,672.42C654.73,678.13 638.30,686.06 629.50,690.04C620.70,694.03 606.30,700.33 597.50,704.03C588.70,707.74 572.73,714.74 562.00,719.59C542.80,728.28 542.37,728.42 534.00,728.63zM436.83,685.66C435.55,685.75 424.82,684.76 413.00,683.46C401.18,682.16 378.32,679.75 362.22,678.09C346.11,676.43 332.57,674.85 332.13,674.58C331.69,674.31 331.02,651.00 330.65,622.79C330.29,594.58 329.98,536.22 329.97,493.11C329.96,449.99 330.23,414.44 330.57,414.11C330.91,413.77 355.10,413.65 384.34,413.84C413.58,414.03 437.82,414.48 438.21,414.85C438.60,415.22 438.98,476.27 439.05,550.51C439.17,685.50 439.17,685.50 436.83,685.66zM242.11,663.88C240.12,663.82 236.29,663.40 233.60,662.94C230.90,662.49 228.35,661.57 227.93,660.89C227.52,660.22 227.14,623.18 227.10,578.58C227.07,533.99 227.49,479.95 228.04,458.50C228.60,437.05 229.30,349.30 229.60,263.50C230.05,132.39 230.37,106.68 231.57,102.34C232.36,99.49 234.78,94.93 236.96,92.17C239.14,89.42 242.43,86.01 244.28,84.60C246.12,83.19 249.52,81.38 251.81,80.57C254.11,79.76 263.08,78.37 271.75,77.48C280.41,76.60 297.85,74.52 310.50,72.86C325.89,70.84 339.62,69.68 352.00,69.37C364.82,69.05 370.00,69.22 368.89,69.93C368.00,70.49 363.27,72.08 358.39,73.46C353.50,74.84 338.70,77.76 325.50,79.95C312.30,82.15 294.30,84.88 285.50,86.03C276.70,87.18 266.39,88.76 262.59,89.54C258.79,90.32 254.19,91.98 252.36,93.23C250.53,94.48 248.79,96.13 248.49,96.89C248.20,97.66 248.23,98.56 248.57,98.89C248.91,99.23 257.13,99.43 266.84,99.34C278.59,99.23 296.68,97.98 320.89,95.59C340.90,93.61 377.13,89.53 401.39,86.51C425.65,83.50 452.71,80.33 461.52,79.47C470.34,78.60 480.68,78.03 484.51,78.20C490.37,78.45 491.54,78.80 491.83,80.36C492.03,81.38 491.80,82.60 491.33,83.07C490.86,83.54 486.21,84.61 480.99,85.44C475.77,86.28 464.75,87.85 456.50,88.92C448.25,89.99 434.30,91.59 425.50,92.48C416.70,93.37 401.40,94.99 391.50,96.08C381.60,97.16 362.02,99.40 348.00,101.04C333.98,102.69 313.95,105.13 303.50,106.48C293.05,107.82 276.77,109.84 267.31,110.97C257.86,112.09 249.42,113.28 248.56,113.61C247.15,114.16 247.00,140.19 246.99,382.36C246.99,529.84 246.70,653.54 246.35,657.25C245.71,664.00 245.71,664.00 242.11,663.88zM209.25,662.87C213.00,663.00 213.00,663.00 213.00,622.25C213.00,599.84 212.70,561.54 212.33,537.14C211.67,492.78 211.67,492.78 209.09,490.31C206.57,487.91 206.18,487.86 194.50,488.29C187.90,488.54 180.93,489.35 179.00,490.08C175.50,491.43 175.50,491.43 178.50,492.10C180.15,492.46 184.20,492.87 187.50,493.00C190.80,493.13 194.85,493.54 196.50,493.91C199.30,494.53 198.97,494.78 191.50,497.64C187.10,499.33 181.81,501.26 179.75,501.93C177.69,502.61 176.00,503.57 176.00,504.08C176.00,504.58 176.68,505.00 177.50,505.00C178.32,505.00 179.00,505.37 179.00,505.83C179.00,506.29 177.31,508.01 175.25,509.65C173.19,511.29 170.04,513.49 168.25,514.53C166.46,515.58 165.00,516.82 165.00,517.30C165.00,517.77 169.50,517.84 175.00,517.45C181.51,516.99 185.00,517.09 185.00,517.75C185.00,518.30 184.42,519.24 183.71,519.82C183.00,520.41 178.66,522.28 174.07,523.97C169.48,525.67 164.43,527.81 162.86,528.74C161.29,529.67 160.00,530.85 160.00,531.36C160.00,531.90 162.93,532.04 167.00,531.70C170.85,531.38 174.00,531.46 174.00,531.88C174.00,532.30 172.20,535.05 170.00,538.00C167.80,540.95 166.00,543.76 166.00,544.25C166.00,544.75 169.46,544.84 173.95,544.44C178.33,544.06 182.66,544.04 183.59,544.40C185.14,544.99 185.12,545.21 183.39,547.13C182.35,548.28 178.12,551.23 174.00,553.68C169.88,556.14 164.70,559.44 162.50,561.02C160.30,562.60 155.80,566.37 152.50,569.40C146.50,574.91 146.50,574.91 152.17,574.95C155.29,574.98 158.55,575.27 159.42,575.61C160.68,576.09 159.97,577.35 156.00,581.69C153.25,584.70 151.00,587.55 151.00,588.03C151.00,588.51 154.82,588.63 159.50,588.30C164.76,587.93 168.00,588.07 168.00,588.68C168.00,589.21 166.99,590.58 165.75,591.71C164.51,592.84 162.07,594.49 160.31,595.38C158.56,596.26 156.83,597.47 156.46,598.06C156.10,598.65 156.63,599.78 157.65,600.56C159.42,601.93 159.39,602.09 156.84,604.25C155.37,605.49 152.30,607.85 150.00,609.50C147.71,611.15 143.85,614.91 141.42,617.86C138.99,620.82 137.00,623.63 137.00,624.11C137.00,624.60 141.72,625.00 147.50,625.00C153.59,625.00 158.00,625.41 158.00,625.97C158.00,626.50 152.71,631.18 146.25,636.37C139.79,641.56 133.23,647.15 131.67,648.79C130.11,650.44 129.23,652.02 129.71,652.32C130.18,652.61 134.38,653.54 139.04,654.38C143.69,655.22 157.40,657.04 169.50,658.43C181.60,659.82 194.65,661.35 198.50,661.85C202.35,662.34 207.19,662.80 209.25,662.87zM45.81,629.95C47.29,629.92 52.77,627.69 58.00,625.00C67.50,620.10 67.50,620.10 63.18,620.05C60.54,620.02 56.08,621.17 51.68,623.01C47.73,624.67 43.88,626.42 43.12,626.90C42.36,627.38 42.05,628.28 42.43,628.89C42.81,629.50 44.33,629.98 45.81,629.95zM45.99,574.00C46.32,574.00 50.37,572.73 54.99,571.18C59.60,569.63 63.56,567.83 63.77,567.18C63.99,566.53 63.25,566.00 62.12,566.00C61.00,566.00 56.66,566.51 52.48,567.13C48.30,567.75 44.18,568.96 43.33,569.81C41.93,571.22 41.95,571.49 43.58,572.68C44.57,573.41 45.65,574.00 45.99,574.00zM398.75,457.82C401.70,457.98 402.00,457.74 402.00,455.13C402.00,453.54 402.69,450.28 403.54,447.88C404.39,445.47 406.90,440.43 409.13,436.67C411.36,432.92 412.88,429.54 412.51,429.17C412.14,428.80 399.83,428.18 385.17,427.79C370.50,427.40 357.26,427.32 355.74,427.62C353.97,427.97 351.95,429.67 350.10,432.35C348.51,434.66 346.53,438.19 345.69,440.20C344.85,442.20 344.17,445.91 344.17,448.43C344.17,451.16 344.77,453.63 345.65,454.51C346.73,455.59 349.67,456.04 356.32,456.13C361.37,456.20 372.25,456.57 380.50,456.95C388.75,457.33 396.96,457.73 398.75,457.82zM385.60,443.79C378.40,443.68 368.23,443.45 363.00,443.28C357.77,443.11 352.92,442.76 352.22,442.50C351.24,442.15 351.39,441.15 352.86,438.27C353.92,436.20 355.71,433.67 356.83,432.65C358.74,430.93 360.33,430.86 381.93,431.54C394.62,431.94 405.00,432.63 405.00,433.07C405.00,433.51 403.58,436.15 401.85,438.93C398.70,444.00 398.70,444.00 385.60,443.79zM388.79,440.90C394.59,440.95 397.66,440.56 398.19,439.73C398.62,439.06 398.98,438.16 398.98,437.75C398.99,437.34 394.50,437.00 389.00,437.00C381.33,437.00 379.00,437.31 379.00,438.33C379.00,439.07 379.26,439.93 379.59,440.25C379.91,440.58 384.05,440.87 388.79,440.90zM371.17,439.80C374.82,439.62 377.50,439.01 377.73,438.31C377.97,437.61 376.70,436.85 374.69,436.47C372.38,436.04 370.21,436.36 368.12,437.44C366.40,438.32 365.00,439.29 365.00,439.57C365.00,439.86 367.78,439.96 371.17,439.80zM387.79,399.55C361.23,399.58 334.22,399.45 327.77,399.27C317.91,398.99 315.89,398.66 315.13,397.22C314.64,396.27 313.32,392.12 312.20,388.00C311.08,383.88 309.86,378.39 309.48,375.82C309.10,373.25 309.10,370.65 309.47,370.05C309.90,369.35 310.81,369.78 311.98,371.23C313.82,373.50 313.82,373.50 375.91,373.80C438.00,374.10 438.00,374.10 437.98,385.30C437.98,391.46 437.54,397.18 437.02,398.00C436.20,399.30 429.58,399.51 387.79,399.55zM188.25,372.87C195.13,372.97 197.00,372.70 197.00,371.61C197.00,370.84 196.29,369.94 195.42,369.61C194.55,369.27 190.02,369.00 185.35,369.00C180.52,369.00 175.93,369.53 174.68,370.22C172.59,371.40 172.64,371.47 176.00,372.09C177.93,372.45 183.44,372.80 188.25,372.87zM276.18,361.97C268.66,361.95 261.71,361.48 260.75,360.92C259.71,360.31 259.00,358.70 259.00,356.93C259.00,354.17 259.19,354.02 261.75,354.73C263.26,355.15 270.28,355.46 277.34,355.42C287.26,355.35 290.38,355.01 291.07,353.92C291.81,352.75 291.97,352.80 291.98,354.17C291.99,355.09 292.25,356.49 292.56,357.29C292.86,358.09 292.38,359.48 291.49,360.37C290.14,361.72 287.51,361.99 276.18,361.97zM307.81,360.33C306.42,361.02 306.00,360.50 305.41,357.40C305.03,355.32 304.99,347.75 305.34,340.56C305.68,333.38 306.90,322.32 308.04,316.00C309.17,309.68 311.45,299.17 313.09,292.66C314.73,286.15 318.36,274.45 321.15,266.66C323.95,258.87 327.72,249.55 329.53,245.94C331.35,242.34 333.52,238.81 334.37,238.11C335.40,237.26 342.03,236.52 354.21,235.92C364.27,235.42 381.95,234.33 393.50,233.50C405.05,232.66 420.57,231.56 428.00,231.04C435.42,230.52 441.80,230.41 442.18,230.80C442.55,231.18 442.40,235.10 441.85,239.50C441.29,243.90 440.64,249.30 440.40,251.50C439.95,255.50 439.95,255.50 431.23,255.13C426.43,254.92 409.23,255.31 393.00,255.99C376.77,256.67 362.73,257.63 361.79,258.13C360.85,258.62 358.06,261.86 355.59,265.33C353.11,268.79 345.88,282.17 339.52,295.06C333.16,307.95 327.42,320.30 326.78,322.50C326.10,324.80 324.13,327.81 322.13,329.57C318.99,332.34 318.61,333.26 318.19,338.99C317.81,344.31 318.03,345.55 319.56,346.67C320.94,347.68 326.13,347.98 340.94,347.93C351.70,347.89 362.85,347.52 365.73,347.11C368.61,346.70 371.31,346.70 371.73,347.12C372.15,347.53 381.09,347.97 391.59,348.09C402.09,348.21 411.21,347.99 411.84,347.60C412.48,347.20 413.00,345.65 413.00,344.15C413.00,342.65 413.69,338.79 414.52,335.57C415.36,332.36 417.22,326.75 418.65,323.11C420.08,319.48 424.51,309.75 428.50,301.50C432.49,293.25 436.47,285.60 437.34,284.50C438.81,282.66 438.94,285.57 438.97,320.72C439.00,358.94 439.00,358.94 374.25,359.22C338.64,359.37 308.74,359.88 307.81,360.33zM291.72,351.45C291.60,351.48 284.13,351.38 275.12,351.22C258.75,350.95 258.75,350.95 259.43,344.72C259.80,341.30 260.55,336.81 261.09,334.75C261.63,332.69 262.54,331.00 263.11,331.00C263.67,331.00 263.91,331.79 263.64,332.75C263.37,333.71 262.84,336.88 262.47,339.78C262.02,343.36 262.20,345.53 263.02,346.53C263.97,347.66 266.82,348.00 275.50,348.00C283.44,348.00 287.07,347.62 287.82,346.72C288.41,346.01 289.35,342.56 289.92,339.04C290.48,335.53 291.36,332.24 291.86,331.74C292.41,331.19 293.02,331.23 293.40,331.85C293.75,332.41 293.56,337.04 292.99,342.13C292.41,347.23 291.84,351.42 291.72,351.45zM275.74,345.00C266.73,345.00 266.73,345.00 267.35,340.46C267.69,337.96 268.44,335.04 269.02,333.96C269.76,332.58 271.12,332.00 273.58,332.00C277.05,332.00 277.08,332.04 276.43,335.50C275.92,338.24 276.10,339.00 277.28,339.00C278.11,339.00 279.07,338.26 279.42,337.36C279.76,336.46 279.77,334.85 279.43,333.79C278.89,332.09 279.26,331.90 282.66,332.18C286.49,332.50 286.50,332.51 286.81,337.33C286.98,340.03 286.60,342.78 285.94,343.58C285.07,344.61 282.31,345.00 275.74,345.00zM395.71,343.80C393.95,343.70 389.46,343.45 385.75,343.26C380.80,343.00 379.00,342.54 379.00,341.51C379.00,340.74 380.01,339.01 381.25,337.65C383.40,335.31 383.91,335.22 392.25,335.72C400.06,336.19 401.00,336.46 401.00,338.19C401.00,339.26 400.53,341.00 399.96,342.07C399.23,343.44 398.00,343.94 395.71,343.80zM469.32,342.77C451.47,343.04 451.12,343.00 449.57,340.80C448.27,338.93 448.00,335.09 448.01,318.03C448.02,306.74 448.48,288.56 449.03,277.64C449.58,266.72 450.70,253.31 451.52,247.84C452.35,242.37 453.65,236.38 454.42,234.54C455.19,232.70 456.65,230.94 457.66,230.64C458.67,230.33 466.40,229.95 474.83,229.79C489.17,229.52 490.25,229.63 491.65,231.50C492.68,232.87 492.97,234.76 492.59,237.50C492.27,239.70 491.31,249.38 490.43,259.00C489.56,268.62 488.55,291.35 488.17,309.50C487.50,342.50 487.50,342.50 469.32,342.77zM371.02,341.49C370.44,341.85 370.00,341.10 370.00,339.75C370.00,338.45 371.12,335.86 372.50,334.00C373.88,332.14 375.00,330.07 375.00,329.41C375.00,328.75 374.29,327.94 373.42,327.61C372.55,327.27 362.99,326.99 352.17,326.97C338.89,326.95 333.04,326.62 334.17,325.96C335.09,325.43 341.25,314.08 347.85,300.74C354.46,287.41 361.73,273.68 364.02,270.24C366.30,266.80 369.05,263.51 370.13,262.93C371.21,262.35 380.50,261.47 390.79,260.97C401.08,260.47 412.69,259.86 416.59,259.62C420.48,259.38 424.27,259.55 425.00,260.00C426.02,260.63 424.80,263.87 419.69,274.16C416.05,281.50 410.46,294.06 407.28,302.07C404.10,310.09 400.79,317.71 399.92,319.01C398.35,321.36 398.28,321.37 373.92,321.75C354.45,322.05 349.20,322.42 348.04,323.57C346.76,324.81 348.39,325.01 360.54,325.11C368.22,325.17 375.85,325.33 377.50,325.48C379.15,325.62 380.69,325.80 380.92,325.87C381.16,325.94 380.42,327.01 379.28,328.25C378.15,329.49 376.05,332.83 374.63,335.68C373.20,338.53 371.58,341.14 371.02,341.49zM467.36,327.78C480.50,327.50 480.50,327.50 480.50,321.50C480.50,315.50 480.50,315.50 468.03,315.50C456.29,315.50 455.50,315.62 454.49,317.64C453.91,318.82 453.60,321.64 453.82,323.92C454.22,328.06 454.22,328.06 467.36,327.78zM295.68,322.50C294.97,323.10 288.22,323.39 278.75,323.22C267.14,323.02 263.00,322.63 263.01,321.72C263.01,321.05 263.87,315.55 264.91,309.50C265.96,303.45 268.25,292.65 270.02,285.50C271.78,278.35 274.35,268.90 275.73,264.50C277.11,260.10 279.53,253.92 281.12,250.77C283.08,246.88 284.74,244.88 286.26,244.57C287.49,244.31 294.91,243.81 302.75,243.46C316.32,242.84 317.00,242.90 317.00,244.72C317.00,245.77 315.64,250.65 313.98,255.56C312.32,260.48 308.72,272.43 306.00,282.12C303.27,291.80 300.09,304.63 298.95,310.62C297.80,316.60 296.33,321.95 295.68,322.50zM115.50,317.89C114.40,318.22 111.25,318.39 108.50,318.25C105.75,318.11 102.04,317.75 100.25,317.45C97.00,316.91 97.00,316.91 97.00,302.92C97.00,291.66 97.28,288.83 98.44,288.38C99.24,288.08 103.36,288.55 107.60,289.43C111.85,290.30 115.94,291.53 116.69,292.16C117.74,293.03 117.99,296.09 117.78,305.28C117.52,316.27 117.33,317.33 115.50,317.89zM275.56,311.00C276.29,311.00 277.16,310.55 277.50,310.00C277.84,309.45 278.99,309.00 280.06,309.00C281.13,309.00 282.00,309.45 282.00,310.00C282.00,310.55 282.66,311.00 283.48,311.00C284.29,311.00 286.43,310.10 288.23,309.00C290.03,307.91 291.84,307.01 292.25,307.00C292.66,307.00 293.00,307.68 293.00,308.50C293.00,309.32 293.40,310.00 293.88,310.00C294.36,310.00 295.27,308.09 295.89,305.75C296.52,303.41 298.85,294.30 301.07,285.50C303.29,276.70 306.21,266.19 307.56,262.14C308.90,258.09 310.00,254.37 310.00,253.89C310.00,253.40 308.95,253.00 307.67,253.00C306.38,253.00 305.01,253.32 304.62,253.71C304.23,254.11 300.36,254.30 296.03,254.13C288.63,253.85 288.06,253.98 286.56,256.28C285.67,257.62 285.24,259.46 285.58,260.36C286.07,261.63 287.58,262.00 292.36,261.99C295.74,261.99 299.74,261.34 301.25,260.55C303.81,259.22 304.00,259.26 304.00,261.09C304.00,262.18 303.33,264.67 302.51,266.64C301.35,269.40 300.61,270.06 299.26,269.54C298.29,269.16 294.53,268.60 290.90,268.30C284.78,267.78 284.18,267.91 282.65,270.09C281.74,271.39 281.00,273.46 281.00,274.70C281.00,276.29 281.76,277.15 283.55,277.60C284.95,277.95 287.99,277.94 290.30,277.57C292.61,277.21 295.51,276.65 296.75,276.34C298.79,275.83 299.00,276.14 299.00,279.67C299.00,281.81 298.29,284.56 297.43,285.80C295.89,288.00 295.82,288.01 293.49,286.17C291.85,284.88 289.25,284.25 285.11,284.12C280.05,283.97 278.93,284.25 278.05,285.91C277.47,286.99 277.00,289.02 277.00,290.43C277.00,292.91 277.22,293.00 283.05,293.00C286.53,293.00 290.36,292.35 292.07,291.47C294.72,290.09 295.10,290.09 295.62,291.45C295.94,292.28 295.59,294.83 294.85,297.10C293.50,301.24 293.50,301.24 283.54,301.37C273.59,301.50 273.59,301.50 272.87,304.99C272.45,307.05 272.58,309.00 273.20,309.74C273.77,310.43 274.84,311.00 275.56,311.00zM108.75,309.82C109.87,309.60 110.61,308.39 110.80,306.44C110.96,304.76 110.64,302.18 110.07,300.69C109.51,299.21 108.31,298.00 107.41,298.00C106.19,298.00 105.92,298.59 106.37,300.25C106.70,301.49 106.98,304.22 106.99,306.32C107.00,309.42 107.33,310.08 108.75,309.82zM374.85,310.00C392.48,310.00 394.87,309.80 396.26,308.25C397.13,307.29 399.66,302.31 401.88,297.18C404.10,292.05 407.96,284.01 410.46,279.32C412.96,274.62 415.00,270.55 415.00,270.27C415.00,269.99 406.56,270.07 396.25,270.45C385.94,270.83 376.74,271.35 375.81,271.62C374.88,271.88 372.12,275.56 369.69,279.80C367.25,284.03 362.95,292.10 360.13,297.73C357.31,303.36 355.00,308.42 355.00,308.98C355.00,309.64 362.05,310.00 374.85,310.00zM461.69,307.00C462.96,307.00 464.90,306.10 466.00,305.00C467.10,303.90 468.00,302.61 468.00,302.12C468.00,301.64 467.36,300.71 466.57,300.06C465.79,299.41 463.20,299.02 460.82,299.19C457.10,299.46 456.45,299.84 456.16,301.94C455.94,303.45 456.50,304.89 457.60,305.69C458.58,306.41 460.42,307.00 461.69,307.00zM474.71,306.92C475.94,306.96 477.39,306.14 477.96,305.07C478.53,304.00 479.00,302.20 479.00,301.07C479.00,299.28 478.38,299.00 474.50,299.00C470.04,299.00 470.00,299.03 470.00,302.42C470.00,304.30 470.56,306.06 471.25,306.34C471.94,306.62 473.50,306.88 474.71,306.92zM461.72,291.98C464.35,291.98 467.10,291.59 467.83,291.13C468.59,290.65 469.02,289.03 468.83,287.39C468.51,284.56 468.37,284.50 462.50,284.50C456.98,284.50 456.47,284.69 456.17,286.82C455.99,288.10 456.09,289.79 456.39,290.57C456.76,291.54 458.49,292.00 461.72,291.98zM474.83,291.81C478.27,291.52 478.52,291.27 478.81,287.83C479.05,284.89 478.72,284.04 477.09,283.53C475.98,283.18 474.21,283.35 473.16,283.92C472.10,284.48 470.95,285.70 470.59,286.61C470.24,287.53 470.23,289.14 470.56,290.20C471.04,291.71 471.94,292.05 474.83,291.81zM433.85,272.04C428.70,277.50 428.70,277.50 432.51,270.50C434.60,266.65 436.92,262.61 437.66,261.53C438.90,259.70 439.00,259.82 439.00,263.07C439.00,265.93 438.04,267.61 433.85,272.04zM462.37,276.98C464.64,276.98 467.11,276.58 467.85,276.11C468.59,275.64 469.04,274.41 468.84,273.38C468.55,271.88 467.44,271.44 463.40,271.20C459.76,270.99 457.96,271.34 457.04,272.45C456.01,273.69 456.01,274.30 457.00,275.50C457.74,276.40 459.91,276.99 462.37,276.98zM475.96,276.80C478.98,276.54 479.55,276.10 479.81,273.78C480.06,271.61 479.64,270.95 477.66,270.45C476.30,270.11 474.24,270.33 473.09,270.95C471.94,271.57 471.00,272.88 471.00,273.87C471.00,274.86 471.32,275.99 471.71,276.38C472.11,276.77 474.02,276.96 475.96,276.80zM458.52,267.00C460.47,267.00 461.44,266.21 462.51,263.75C463.62,261.20 463.93,260.96 463.96,262.63C463.98,263.80 464.65,265.30 465.45,265.96C466.25,266.62 467.71,267.01 468.69,266.82C469.68,266.63 471.09,265.22 471.82,263.69C472.87,261.50 472.90,260.58 471.96,259.45C471.30,258.65 469.49,258.00 467.94,258.00C466.39,258.00 464.83,258.47 464.47,259.05C464.02,259.77 463.40,259.75 462.47,258.98C461.73,258.36 459.90,258.00 458.41,258.18C456.92,258.35 455.28,259.18 454.77,260.00C454.19,260.94 454.24,262.52 454.90,264.25C455.67,266.26 456.64,267.00 458.52,267.00zM478.55,266.97C479.13,266.99 480.14,266.46 480.80,265.80C481.46,265.14 482.00,262.89 482.00,260.80C482.00,257.25 481.80,257.00 479.04,257.00C477.13,257.00 475.70,257.69 475.04,258.93C474.47,260.00 474.00,261.78 474.00,262.88C474.00,263.99 474.79,265.36 475.75,265.92C476.71,266.48 477.97,266.95 478.55,266.97zM53.41,256.37C52.28,256.73 51.05,256.72 50.68,256.34C50.30,255.97 50.00,248.25 50.00,239.20C50.00,222.72 50.00,222.72 55.75,223.40C58.91,223.77 65.55,225.01 70.50,226.16C75.45,227.31 81.08,229.05 83.00,230.02C84.92,230.99 87.23,232.62 88.11,233.64C89.00,234.66 90.94,237.62 92.43,240.20C94.24,243.34 95.03,246.00 94.82,248.20C94.50,251.46 94.45,251.50 89.50,251.42C86.75,251.37 79.75,251.14 73.93,250.92C63.88,250.52 63.18,250.63 59.42,253.11C57.25,254.54 54.55,256.01 53.41,256.37zM460.25,254.97C460.66,254.99 461.90,254.10 463.00,253.00C464.10,251.90 465.00,250.30 465.00,249.43C465.00,248.57 464.51,246.96 463.92,245.85C463.09,244.29 463.20,243.44 464.42,242.09C465.29,241.13 466.00,239.37 466.00,238.19C466.00,236.69 465.19,235.83 463.33,235.37C461.28,234.85 460.25,235.21 458.88,236.90C457.59,238.49 457.33,239.73 457.94,241.34C458.51,242.84 458.33,244.19 457.39,245.48C456.63,246.52 456.00,248.62 456.00,250.14C456.00,251.71 456.75,253.34 457.75,253.92C458.71,254.48 459.84,254.95 460.25,254.97zM470.13,254.00C471.97,254.00 473.32,253.26 474.07,251.86C474.70,250.69 474.98,248.25 474.69,246.45C474.36,244.42 474.69,242.47 475.56,241.34C476.78,239.74 477.09,239.69 477.97,241.00C478.52,241.82 478.98,242.78 478.98,243.13C478.99,243.47 478.32,244.32 477.50,245.00C476.68,245.68 476.00,247.45 476.00,248.92C476.00,250.40 476.54,252.14 477.20,252.80C477.86,253.46 479.18,254.00 480.14,254.00C481.10,254.00 482.23,253.44 482.65,252.75C483.08,252.06 483.81,248.80 484.27,245.50C484.74,242.20 485.20,238.60 485.31,237.50C485.48,235.70 484.85,235.48 479.00,235.34C475.43,235.25 471.54,235.36 470.36,235.58C469.18,235.80 467.96,236.67 467.64,237.50C467.32,238.33 467.47,240.10 467.97,241.43C468.65,243.20 468.50,244.17 467.45,245.04C466.65,245.70 466.00,247.69 466.00,249.46C466.00,251.22 466.30,252.97 466.67,253.33C467.03,253.70 468.59,254.00 470.13,254.00zM274.59,243.07C271.82,248.50 271.82,248.50 272.46,241.50C272.81,237.65 274.21,226.34 275.56,216.36C276.92,206.39 279.13,192.65 280.49,185.84C281.85,179.03 285.22,165.17 287.99,155.05C290.75,144.93 294.17,134.68 295.58,132.27C297.06,129.75 299.49,127.28 301.32,126.45C303.07,125.65 318.92,122.97 336.55,120.49C354.18,118.02 382.08,114.43 398.55,112.53C415.02,110.63 434.80,108.37 442.50,107.52C450.20,106.68 459.78,105.54 463.79,104.99C467.80,104.45 471.74,104.00 472.54,104.00C473.34,104.00 474.00,104.90 474.00,106.00C474.00,107.09 473.14,110.58 472.10,113.75C471.05,116.91 468.29,125.58 465.96,133.00C463.64,140.43 460.04,153.93 457.97,163.00C455.91,172.07 452.77,185.57 451.00,193.00C449.24,200.43 447.48,207.85 447.11,209.50C446.42,212.50 446.42,212.50 420.46,214.15C406.18,215.05 385.73,216.53 375.00,217.43C364.27,218.33 348.30,219.73 339.50,220.54C330.70,221.34 318.10,222.46 311.50,223.01C304.90,223.56 297.10,224.50 294.16,225.09C289.65,226.01 287.93,227.07 283.09,231.91C279.94,235.06 276.11,240.09 274.59,243.07zM474.00,225.48C467.24,225.85 461.93,225.72 461.11,225.16C460.10,224.47 459.76,222.15 459.87,216.85C459.95,212.81 460.23,207.70 460.48,205.50C460.73,203.30 461.45,197.55 462.08,192.71C462.72,187.73 463.85,183.29 464.68,182.46C465.48,181.66 467.62,181.00 469.42,181.00C471.23,181.00 475.39,180.72 478.66,180.38C483.65,179.86 484.91,180.06 486.46,181.60C488.17,183.32 488.26,184.85 487.66,203.42C487.30,214.40 486.67,223.72 486.26,224.12C485.84,224.52 480.32,225.13 474.00,225.48zM307.25,216.98C310.69,216.98 318.68,216.55 325.00,216.03C331.32,215.51 350.23,214.18 367.00,213.07C383.77,211.97 406.50,210.58 417.50,210.01C428.50,209.43 438.94,208.72 440.69,208.44C442.52,208.15 444.12,207.19 444.42,206.22C444.72,205.27 445.88,200.00 447.00,194.50C448.13,189.00 451.12,176.62 453.66,167.00C456.19,157.38 458.74,147.37 459.33,144.78C459.91,142.18 460.07,139.73 459.68,139.34C459.29,138.96 447.39,139.66 433.24,140.90C419.08,142.15 395.80,144.47 381.50,146.06C367.20,147.65 348.49,149.63 339.91,150.45C331.34,151.27 323.68,152.19 322.89,152.49C322.10,152.79 320.86,154.00 320.13,155.17C319.40,156.34 317.72,160.17 316.39,163.68C315.07,167.20 311.07,180.16 307.49,192.48C303.92,204.81 301.00,215.36 301.00,215.94C301.00,216.57 303.52,216.99 307.25,216.98zM56.50,215.40C53.75,215.84 51.16,215.86 50.75,215.43C50.34,215.01 50.00,204.35 50.00,191.73C50.00,172.61 50.27,168.23 51.63,165.37C52.53,163.48 54.20,161.43 55.35,160.81C56.50,160.20 58.87,159.75 60.62,159.81C62.36,159.88 65.75,160.70 68.14,161.64C70.54,162.58 74.41,164.64 76.75,166.22C79.09,167.80 81.00,169.75 81.00,170.55C81.00,171.49 79.96,172.00 78.00,172.00C76.35,172.00 75.00,172.39 75.00,172.86C75.00,173.33 78.85,175.20 83.55,177.02C88.26,178.84 92.53,181.12 93.05,182.09C93.57,183.06 93.72,184.57 93.39,185.44C93.05,186.31 91.82,187.22 90.64,187.46C89.46,187.71 86.03,188.45 83.00,189.11C79.97,189.78 72.78,190.59 67.01,190.91C58.62,191.38 56.46,191.81 56.22,193.06C55.99,194.27 58.51,195.24 67.71,197.47C74.20,199.03 82.20,201.19 85.50,202.25C88.80,203.32 92.31,204.91 93.30,205.79C94.59,206.94 95.01,208.54 94.80,211.45C94.50,215.50 94.50,215.50 87.50,215.00C83.65,214.72 76.22,214.52 71.00,214.55C65.78,214.58 59.25,214.96 56.50,215.40z" />

</svg>
